<svg xmlns="http://www.w3.org/2000/svg" xmlns:xlink="http://www.w3.org/1999/xlink" width="500" zoomAndPan="magnify" viewBox="0 0 375 374.999991" height="500" preserveAspectRatio="xMidYMid meet" version="1.0"><defs><g/><clipPath id="id1"><path d="M 38.480469 37.539062 L 336.519531 37.539062 L 336.519531 179.046875 L 38.480469 179.046875 Z M 38.480469 37.539062 " clip-rule="nonzero"/></clipPath></defs><path fill="#ffffff" d="M 231.894531 119.011719 C 242.539062 119.519531 253.171875 120.597656 263.625 122.667969 C 268.972656 123.738281 274.277344 125.078125 279.429688 126.859375 C 284.574219 128.648438 289.59375 130.878906 294.121094 133.886719 C 289.453125 131.097656 284.375 129.125 279.195312 127.589844 C 274.003906 126.070312 268.699219 124.992188 263.359375 124.183594 C 253.175781 122.664062 242.875 122.089844 232.59375 122.054688 C 232.945312 123.625 233.265625 125.148438 233.558594 126.609375 C 249.785156 126.824219 265.789062 131.261719 279.582031 139.28125 C 265.460938 132.21875 249.636719 128.90625 234.121094 129.589844 C 234.449219 131.460938 234.703125 133.167969 234.851562 134.652344 C 258.398438 137.753906 272.929688 140.832031 281.429688 143.050781 C 292.46875 141.714844 301.585938 140.007812 308.835938 137.929688 C 311.734375 137.148438 314.308594 136.320312 316.601562 135.480469 C 316.566406 135.4375 316.539062 135.398438 316.507812 135.363281 C 308.03125 125.441406 276.046875 118.253906 231.046875 115.5 C 231.335938 116.675781 231.617188 117.847656 231.894531 119.011719 " fill-opacity="1" fill-rule="nonzero"/><path fill="#ffffff" d="M 49.09375 115.980469 C 69.933594 103.917969 109.296875 100.757812 109.296875 100.757812 C 90.292969 104.148438 49.332031 112.621094 43.238281 127.042969 C 44.660156 128.34375 46.988281 130.132812 50.601562 132.042969 L 50.320312 121.269531 L 59.566406 130.257812 L 64.097656 113.136719 L 74.5625 123.3125 L 74.515625 123.335938 C 74.589844 123.3125 74.65625 123.289062 74.734375 123.261719 L 83.027344 108.195312 L 96.097656 117.992188 C 97.484375 117.730469 98.910156 117.480469 100.359375 117.234375 L 110.769531 103.789062 L 121.144531 114.433594 C 122.34375 114.304688 123.554688 114.183594 124.777344 114.0625 L 135.082031 100.757812 L 145.003906 110.9375 C 146.417969 105.46875 147.882812 100.183594 149.074219 96.019531 C 93.628906 98.589844 53.800781 106.933594 43.710938 118.738281 C 42.503906 120.152344 41.78125 121.566406 41.515625 123.011719 C 42.929688 120.554688 45.328125 118.160156 49.09375 115.980469 " fill-opacity="1" fill-rule="nonzero"/><path fill="#ffffff" d="M 229.609375 109.84375 L 238.460938 100.757812 L 248.648438 113.910156 C 250.320312 114.070312 251.96875 114.234375 253.589844 114.40625 L 264.8125 103.507812 L 274.867188 117.273438 C 276.042969 117.46875 277.191406 117.675781 278.328125 117.886719 L 291.816406 108.59375 L 298.933594 122.839844 C 300.921875 123.472656 302.78125 124.121094 304.515625 124.796875 L 318.613281 115.542969 L 315.808594 130.753906 C 316.722656 131.460938 317.511719 132.183594 318.203125 132.917969 L 330.183594 123.78125 L 328.386719 129.667969 C 331.640625 127.472656 333.101562 125.722656 333.539062 125.144531 C 333.8125 122.933594 333.082031 120.835938 331.289062 118.738281 C 321.191406 106.925781 281.320312 98.582031 225.824219 96.015625 C 226.933594 99.902344 228.28125 104.761719 229.609375 109.84375 " fill-opacity="1" fill-rule="nonzero"/><path fill="#ffffff" d="M 58.496094 135.363281 C 58.460938 135.398438 58.433594 135.4375 58.402344 135.480469 C 60.6875 136.320312 63.253906 137.144531 66.140625 137.921875 C 82.738281 142.6875 109.011719 145.488281 145.882812 146.398438 C 143.546875 145.800781 141.53125 145.234375 139.816406 144.722656 C 137.796875 144.082031 136.164062 143.550781 134.863281 143.070312 C 133.5625 142.574219 132.578125 142.171875 131.851562 141.855469 C 130.386719 141.222656 129.921875 140.933594 129.921875 140.933594 C 129.921875 140.933594 130.476562 140.910156 132.058594 141.070312 C 132.851562 141.148438 133.898438 141.277344 135.261719 141.472656 C 136.628906 141.652344 138.320312 141.863281 140.386719 142.179688 C 140.703125 142.222656 141.046875 142.269531 141.382812 142.316406 C 140.773438 141.507812 140.335938 140.59375 140.082031 139.550781 C 139.632812 138.054688 139.886719 134.875 140.554688 130.800781 C 133.511719 130.824219 126.453125 131.179688 119.449219 132.035156 C 115.792969 132.492188 112.148438 133.082031 108.574219 133.972656 C 105.019531 134.882812 101.460938 136.03125 98.382812 138.113281 C 101.308594 135.816406 104.835938 134.398438 108.359375 133.234375 C 111.910156 132.082031 115.546875 131.230469 119.203125 130.515625 C 126.429688 129.121094 133.75 128.25 141.105469 127.738281 C 141.382812 126.304688 141.695312 124.800781 142.035156 123.246094 C 131.253906 123.390625 120.457031 124.058594 109.757812 125.492188 C 104.261719 126.246094 98.785156 127.199219 93.414062 128.605469 C 88.078125 130.039062 82.730469 131.828125 78.144531 135.015625 C 82.582031 131.617188 87.894531 129.550781 93.203125 127.863281 C 98.542969 126.203125 104.011719 124.988281 109.515625 123.972656 C 120.484375 121.988281 131.585938 120.796875 142.730469 120.164062 C 143.085938 118.632812 143.460938 117.074219 143.84375 115.503906 C 98.902344 118.265625 66.96875 125.445312 58.496094 135.363281 " fill-opacity="1" fill-rule="nonzero"/><g clip-path="url(#id1)"><path fill="#000000" d="M 41.980469 129.804688 C 45.660156 132.960938 52.769531 137.34375 65.355469 140.726562 C 88.199219 147.285156 127.027344 150.09375 187.488281 149.582031 C 247.988281 150.105469 286.800781 147.285156 309.621094 140.734375 C 312.21875 140.035156 314.570312 139.292969 316.722656 138.53125 C 311.726562 141.015625 306.390625 142.929688 300.84375 144.171875 C 309.878906 143.53125 318.90625 141.101562 327.273438 137.011719 C 324.203125 145.5625 314.035156 162.664062 281.09375 168.632812 C 281.09375 168.632812 284.753906 168.65625 290.78125 167.488281 C 270.835938 173.070312 243.617188 175.800781 204.578125 176.101562 C 206.402344 175.953125 208.128906 175.800781 209.710938 175.648438 C 212.238281 175.417969 214.433594 175.199219 216.246094 174.992188 C 219.859375 174.570312 221.925781 174.332031 221.925781 174.332031 C 221.925781 174.332031 219.84375 174.351562 216.207031 174.378906 C 212.570312 174.429688 207.378906 174.503906 201.152344 174.585938 C 194.925781 174.6875 187.667969 174.710938 179.894531 174.722656 C 176.011719 174.683594 172 174.664062 167.921875 174.578125 C 163.847656 174.535156 159.710938 174.382812 155.574219 174.226562 C 153.507812 174.175781 151.441406 174.042969 149.382812 173.957031 C 147.324219 173.871094 145.273438 173.761719 143.242188 173.605469 C 141.210938 173.472656 139.195312 173.335938 137.203125 173.203125 C 135.210938 173.039062 133.25 172.875 131.320312 172.714844 C 129.382812 172.570312 127.492188 172.332031 125.636719 172.152344 C 123.78125 171.949219 121.953125 171.820312 120.195312 171.570312 C 116.667969 171.105469 113.320312 170.75 110.253906 170.253906 C 108.71875 170.03125 107.246094 169.8125 105.84375 169.609375 C 104.445312 169.367188 103.121094 169.140625 101.878906 168.929688 C 99.386719 168.507812 97.207031 168.15625 95.429688 167.78125 C 91.859375 167.09375 89.816406 166.707031 89.816406 166.707031 C 89.816406 166.707031 91.808594 167.308594 95.292969 168.371094 C 97.03125 168.917969 99.171875 169.460938 101.632812 170.082031 C 102.863281 170.386719 104.179688 170.714844 105.558594 171.054688 C 106.953125 171.351562 108.421875 171.664062 109.945312 171.988281 C 112.59375 172.582031 115.460938 173.085938 118.480469 173.601562 C 103.105469 171.984375 90.570312 169.566406 80.148438 166.28125 C 56.96875 158.964844 44.726562 147.308594 41.980469 129.804688 Z M 217.558594 115.445312 C 194.140625 117.664062 166.121094 115.402344 157.445312 114.585938 C 153.304688 114.199219 149.761719 113.027344 147.703125 112.222656 C 147.972656 111.09375 148.230469 109.96875 148.507812 108.84375 C 149.445312 105.117188 150.429688 101.410156 151.441406 97.707031 C 153.171875 98.441406 156.683594 99.710938 160.953125 100.113281 C 166.09375 100.597656 179.105469 101.675781 193.320312 101.675781 C 200.648438 101.675781 208.289062 101.382812 215.339844 100.585938 C 216.234375 105.546875 216.996094 110.542969 217.558594 115.445312 Z M 157.925781 144.453125 C 154.722656 144.109375 151.894531 143.757812 149.363281 143.421875 C 145.796875 142.480469 143.609375 141.019531 143.0625 138.75 C 142.6875 137.503906 142.957031 134.523438 143.691406 130.375 C 145.796875 131.234375 149.714844 132.597656 154.421875 133.039062 C 160.417969 133.605469 175.589844 134.855469 192.171875 134.855469 C 200.992188 134.855469 210.214844 134.5 218.65625 133.496094 C 218.640625 135.820312 218.554688 138.078125 218.386719 140.246094 C 195.640625 143.476562 172.304688 143.433594 149.351562 139.996094 C 160.761719 142.527344 172.394531 144.210938 184.113281 145.050781 C 183.28125 145.054688 182.449219 145.058594 181.632812 145.0625 C 174.355469 145.089844 167.886719 145.113281 162.417969 144.90625 C 160.847656 144.757812 159.351562 144.605469 157.925781 144.453125 Z M 157.25 116.628906 C 163.25 117.195312 178.433594 118.445312 195.007812 118.445312 C 202.558594 118.445312 210.394531 118.183594 217.785156 117.484375 C 218.25 121.886719 218.542969 126.199219 218.632812 130.335938 L 207.914062 119.863281 L 198.4375 132.738281 C 197.992188 132.746094 197.546875 132.757812 197.097656 132.765625 L 186.359375 120.511719 L 176.066406 132.441406 C 175.785156 132.429688 175.511719 132.417969 175.238281 132.40625 L 165.199219 119.792969 L 154.65625 130.90625 L 150.953125 117.777344 L 144.753906 125.035156 C 145.230469 122.832031 145.78125 120.441406 146.398438 117.910156 C 146.667969 116.6875 146.9375 115.464844 147.222656 114.242188 C 149.433594 115.09375 153.023438 116.234375 157.25 116.628906 Z M 316.507812 135.363281 C 316.539062 135.398438 316.566406 135.4375 316.601562 135.480469 C 314.308594 136.320312 311.734375 137.148438 308.835938 137.929688 C 301.585938 140.007812 292.46875 141.714844 281.429688 143.050781 C 272.929688 140.832031 258.398438 137.753906 234.851562 134.652344 C 234.703125 133.167969 234.449219 131.460938 234.121094 129.589844 C 249.636719 128.90625 265.460938 132.21875 279.582031 139.28125 C 265.789062 131.261719 249.785156 126.824219 233.558594 126.609375 C 233.265625 125.148438 232.945312 123.625 232.59375 122.054688 C 242.875 122.089844 253.175781 122.664062 263.359375 124.183594 C 268.699219 124.992188 274.003906 126.070312 279.195312 127.589844 C 284.375 129.125 289.453125 131.097656 294.121094 133.886719 C 289.59375 130.878906 284.574219 128.648438 279.429688 126.859375 C 274.277344 125.078125 268.972656 123.738281 263.625 122.667969 C 253.171875 120.597656 242.539062 119.519531 231.894531 119.011719 C 231.617188 117.847656 231.335938 116.675781 231.046875 115.5 C 276.046875 118.253906 308.03125 125.441406 316.507812 135.363281 Z M 143.84375 115.503906 C 143.460938 117.074219 143.085938 118.632812 142.730469 120.164062 C 131.585938 120.796875 120.484375 121.988281 109.515625 123.972656 C 104.011719 124.988281 98.542969 126.203125 93.203125 127.863281 C 87.894531 129.550781 82.582031 131.617188 78.144531 135.015625 C 82.730469 131.828125 88.078125 130.039062 93.414062 128.605469 C 98.785156 127.199219 104.261719 126.246094 109.757812 125.492188 C 120.457031 124.058594 131.253906 123.390625 142.035156 123.246094 C 141.695312 124.800781 141.382812 126.304688 141.105469 127.738281 C 133.75 128.25 126.429688 129.121094 119.203125 130.515625 C 115.546875 131.230469 111.910156 132.082031 108.359375 133.234375 C 104.835938 134.398438 101.308594 135.816406 98.382812 138.113281 C 101.460938 136.03125 105.019531 134.882812 108.574219 133.972656 C 112.148438 133.082031 115.792969 132.492188 119.449219 132.035156 C 126.453125 131.179688 133.511719 130.824219 140.554688 130.800781 C 139.886719 134.875 139.632812 138.054688 140.082031 139.550781 C 140.335938 140.59375 140.773438 141.507812 141.382812 142.316406 C 141.046875 142.269531 140.703125 142.222656 140.386719 142.179688 C 138.320312 141.863281 136.628906 141.652344 135.261719 141.472656 C 133.898438 141.277344 132.851562 141.148438 132.058594 141.070312 C 130.476562 140.910156 129.921875 140.933594 129.921875 140.933594 C 129.921875 140.933594 130.386719 141.222656 131.851562 141.855469 C 132.578125 142.171875 133.5625 142.574219 134.863281 143.070312 C 136.164062 143.550781 137.796875 144.082031 139.816406 144.722656 C 141.53125 145.234375 143.546875 145.800781 145.882812 146.398438 C 109.011719 145.488281 82.738281 142.6875 66.140625 137.921875 C 63.253906 137.144531 60.6875 136.320312 58.402344 135.480469 C 58.433594 135.4375 58.460938 135.398438 58.496094 135.363281 C 66.96875 125.445312 98.902344 118.265625 143.84375 115.503906 Z M 331.289062 118.738281 C 333.082031 120.835938 333.8125 122.933594 333.539062 125.144531 C 333.101562 125.722656 331.640625 127.472656 328.386719 129.667969 L 330.183594 123.78125 L 318.203125 132.917969 C 317.511719 132.183594 316.722656 131.460938 315.808594 130.753906 L 318.613281 115.542969 L 304.515625 124.796875 C 302.78125 124.121094 300.921875 123.472656 298.933594 122.839844 L 291.816406 108.59375 L 278.328125 117.886719 C 277.191406 117.675781 276.042969 117.46875 274.867188 117.273438 L 264.8125 103.507812 L 253.589844 114.40625 C 251.96875 114.234375 250.320312 114.070312 248.648438 113.910156 L 238.460938 100.757812 L 229.609375 109.84375 C 228.28125 104.761719 226.933594 99.902344 225.824219 96.015625 C 281.320312 98.582031 321.191406 106.925781 331.289062 118.738281 Z M 160.203125 68.496094 C 161.6875 64.070312 163.230469 59.65625 164.972656 55.300781 C 165.421875 54.214844 165.875 53.128906 166.386719 52.054688 C 166.621094 51.515625 166.929688 50.984375 167.199219 50.449219 C 167.527344 49.917969 167.867188 49.394531 168.226562 48.921875 C 169.640625 46.960938 171.523438 45.304688 173.609375 44.085938 C 174.242188 43.722656 174.886719 43.40625 175.542969 43.105469 C 180.222656 40.886719 185.273438 40.613281 187.359375 40.613281 C 187.421875 40.613281 187.484375 40.613281 187.550781 40.613281 C 189.625 40.613281 194.65625 40.882812 199.332031 43.09375 C 199.332031 43.09375 199.332031 43.097656 199.335938 43.097656 C 199.996094 43.398438 200.648438 43.722656 201.285156 44.085938 C 203.371094 45.304688 205.257812 46.960938 206.667969 48.921875 C 207.039062 49.394531 207.351562 49.925781 207.664062 50.457031 C 207.816406 50.722656 207.984375 50.984375 208.121094 51.25 L 208.496094 52.058594 L 209.242188 53.671875 L 209.910156 55.308594 C 211.660156 59.660156 213.210938 64.070312 214.683594 68.503906 C 216.183594 72.925781 217.558594 77.390625 218.914062 81.859375 C 221.589844 90.804688 224.105469 99.792969 226.382812 108.84375 C 227.515625 113.375 228.550781 117.929688 229.484375 122.5 C 229.925781 124.796875 230.390625 127.082031 230.710938 129.394531 C 230.871094 130.550781 231.015625 131.710938 231.097656 132.875 C 231.121094 133.304688 231.140625 133.742188 231.152344 134.171875 C 231.125 134.171875 231.101562 134.167969 231.074219 134.164062 C 231.054688 133.738281 231.015625 133.308594 230.980469 132.886719 C 230.859375 131.730469 230.679688 130.578125 230.480469 129.429688 C 230.101562 127.132812 229.582031 124.859375 229.085938 122.585938 C 228.042969 118.046875 226.894531 113.527344 225.65625 109.035156 C 223.230469 100.035156 220.589844 91.09375 217.78125 82.203125 C 214.910156 73.347656 212.097656 64.4375 208.609375 55.839844 L 207.949219 54.234375 L 207.21875 52.675781 L 206.851562 51.898438 C 206.722656 51.648438 206.574219 51.421875 206.433594 51.179688 C 206.15625 50.707031 205.878906 50.230469 205.519531 49.785156 C 204.191406 47.964844 202.492188 46.484375 200.542969 45.355469 C 200.441406 45.296875 200.332031 45.246094 200.230469 45.191406 C 201.703125 48.824219 203.734375 54.640625 205.917969 61.820312 C 194.308594 63.027344 182.523438 63.035156 170.816406 61.800781 C 182.605469 64.074219 194.695312 65.097656 206.8125 64.824219 C 208.28125 69.820312 209.785156 75.367188 211.214844 81.21875 C 196.089844 82.660156 180.761719 82.523438 165.5625 80.777344 C 180.785156 83.554688 196.359375 84.730469 211.9375 84.234375 C 213.03125 88.890625 214.058594 93.703125 214.96875 98.566406 C 194.457031 100.867188 168.863281 98.796875 161.144531 98.074219 C 156.953125 97.679688 153.46875 96.347656 151.988281 95.703125 C 153.269531 91.074219 154.605469 86.460938 155.984375 81.855469 C 157.320312 77.382812 158.714844 72.925781 160.203125 68.496094 Z M 149.074219 96.019531 C 147.882812 100.183594 146.417969 105.46875 145.003906 110.9375 L 135.082031 100.757812 L 124.777344 114.0625 C 123.554688 114.183594 122.34375 114.304688 121.144531 114.433594 L 110.769531 103.789062 L 100.359375 117.234375 C 98.910156 117.480469 97.484375 117.730469 96.097656 117.992188 L 83.027344 108.195312 L 74.734375 123.261719 C 74.65625 123.289062 74.589844 123.3125 74.515625 123.335938 L 74.5625 123.3125 L 64.097656 113.136719 L 59.566406 130.257812 L 50.320312 121.269531 L 50.601562 132.042969 C 46.988281 130.132812 44.660156 128.34375 43.238281 127.042969 C 49.332031 112.621094 90.292969 104.148438 109.296875 100.757812 C 109.296875 100.757812 69.933594 103.917969 49.09375 115.980469 C 45.328125 118.160156 42.929688 120.554688 41.515625 123.011719 C 41.78125 121.566406 42.503906 120.152344 43.710938 118.738281 C 53.800781 106.933594 93.628906 98.589844 149.074219 96.019531 Z M 333.511719 116.847656 C 322.710938 104.210938 282.375 95.574219 224.964844 93.042969 C 224.957031 93.007812 224.945312 92.96875 224.9375 92.933594 C 219.417969 73.929688 212.035156 51.550781 208.824219 47.195312 C 202.921875 38.265625 191.183594 37.539062 187.558594 37.539062 C 187.488281 37.539062 187.421875 37.539062 187.351562 37.539062 C 183.710938 37.539062 171.945312 38.269531 166.105469 47.15625 C 162.90625 51.410156 155.496094 73.871094 149.960938 92.933594 C 149.953125 92.972656 149.941406 93.011719 149.929688 93.046875 C 92.582031 95.585938 52.285156 104.21875 41.488281 116.847656 C 39.097656 119.652344 38.125 122.652344 38.59375 125.765625 C 38.59375 125.777344 38.59375 125.785156 38.59375 125.792969 C 38.59375 125.800781 38.59375 125.808594 38.597656 125.820312 C 40.046875 146.738281 53.351562 160.878906 79.269531 169.058594 C 102.507812 176.394531 135.890625 179.460938 187.488281 179.003906 C 190.808594 179.03125 194.046875 179.046875 197.222656 179.046875 C 243.359375 179.046875 273.992188 175.917969 295.734375 169.058594 C 321.648438 160.878906 334.953125 146.738281 336.40625 125.820312 C 336.40625 125.8125 336.40625 125.804688 336.40625 125.796875 C 336.410156 125.785156 336.40625 125.773438 336.40625 125.761719 C 336.875 122.648438 335.902344 119.648438 333.511719 116.847656 " fill-opacity="1" fill-rule="nonzero"/></g><path fill="#ffffff" d="M 181.632812 145.0625 C 182.449219 145.058594 183.28125 145.054688 184.113281 145.050781 C 172.394531 144.210938 160.761719 142.527344 149.351562 139.996094 C 172.304688 143.433594 195.640625 143.476562 218.386719 140.246094 C 218.554688 138.078125 218.640625 135.820312 218.65625 133.496094 C 210.214844 134.5 200.992188 134.855469 192.171875 134.855469 C 175.589844 134.855469 160.417969 133.605469 154.421875 133.039062 C 149.714844 132.597656 145.796875 131.234375 143.691406 130.375 C 142.957031 134.523438 142.6875 137.503906 143.0625 138.75 C 143.609375 141.019531 145.796875 142.480469 149.363281 143.421875 C 151.894531 143.757812 154.722656 144.109375 157.925781 144.453125 C 159.351562 144.605469 160.847656 144.757812 162.417969 144.90625 C 167.886719 145.113281 174.355469 145.089844 181.632812 145.0625 " fill-opacity="1" fill-rule="nonzero"/><path fill="#ffffff" d="M 160.953125 100.113281 C 156.683594 99.710938 153.171875 98.441406 151.441406 97.707031 C 150.429688 101.410156 149.445312 105.117188 148.507812 108.84375 C 148.230469 109.96875 147.972656 111.09375 147.703125 112.222656 C 149.761719 113.027344 153.304688 114.199219 157.445312 114.585938 C 166.121094 115.402344 194.140625 117.664062 217.558594 115.445312 C 216.996094 110.542969 216.234375 105.546875 215.339844 100.585938 C 208.289062 101.382812 200.648438 101.675781 193.320312 101.675781 C 179.105469 101.675781 166.09375 100.597656 160.953125 100.113281 " fill-opacity="1" fill-rule="nonzero"/><path fill="#ffffff" d="M 82.117188 146.386719 C 90.757812 147.699219 99.457031 148.59375 108.175781 149.214844 C 125.621094 150.464844 143.113281 151.03125 160.613281 151.160156 C 178.113281 151.429688 195.617188 151.25 213.125 151.023438 C 221.878906 150.925781 230.632812 150.757812 239.386719 150.570312 L 265.65625 150.070312 C 256.917969 150.664062 248.167969 151.117188 239.421875 151.574219 C 230.667969 151.964844 221.917969 152.316406 213.160156 152.597656 C 195.644531 153.160156 178.117188 153.316406 160.589844 153.207031 C 151.824219 153.078125 143.058594 152.84375 134.300781 152.472656 C 125.542969 152.082031 116.78125 151.621094 108.046875 150.78125 C 99.3125 149.96875 90.597656 148.898438 81.953125 147.375 C 77.636719 146.550781 73.34375 145.628906 69.109375 144.480469 C 64.878906 143.320312 60.699219 141.910156 56.757812 139.996094 C 64.851562 143.375 73.5 145.039062 82.117188 146.386719 Z M 225.160156 155.421875 C 221.386719 155.675781 216 156.03125 209.523438 156.359375 C 203.050781 156.648438 195.492188 156.886719 187.390625 157.082031 C 179.289062 157.179688 170.644531 157.210938 162 157.113281 C 153.359375 156.898438 144.71875 156.632812 136.625 156.1875 C 132.578125 155.972656 128.667969 155.640625 124.964844 155.398438 C 121.261719 155.070312 117.761719 154.816406 114.535156 154.480469 C 108.085938 153.796875 102.730469 153.09375 98.984375 152.558594 C 95.25 151.960938 93.117188 151.625 93.117188 151.625 C 93.117188 151.625 95.269531 151.820312 99.03125 152.164062 C 102.792969 152.519531 108.167969 152.960938 114.632812 153.335938 C 117.855469 153.578125 121.359375 153.730469 125.058594 153.953125 C 128.761719 154.09375 132.664062 154.3125 136.707031 154.414062 C 144.785156 154.769531 153.410156 154.941406 162.035156 155.0625 C 170.660156 155.25 179.289062 155.3125 187.375 155.300781 C 195.464844 155.335938 203.019531 155.3125 209.488281 155.207031 C 215.964844 155.1875 221.363281 155.09375 225.140625 155.023438 C 228.917969 154.976562 231.078125 154.949219 231.078125 154.949219 C 231.078125 154.949219 228.925781 155.117188 225.160156 155.421875 Z M 80.148438 166.28125 C 90.570312 169.566406 103.105469 171.984375 118.480469 173.601562 C 115.460938 173.085938 112.59375 172.582031 109.945312 171.988281 C 108.421875 171.664062 106.953125 171.351562 105.558594 171.054688 C 104.179688 170.714844 102.863281 170.386719 101.632812 170.082031 C 99.171875 169.460938 97.03125 168.917969 95.292969 168.371094 C 91.808594 167.308594 89.816406 166.707031 89.816406 166.707031 C 89.816406 166.707031 91.859375 167.09375 95.429688 167.78125 C 97.207031 168.15625 99.386719 168.507812 101.878906 168.929688 C 103.121094 169.140625 104.445312 169.367188 105.84375 169.609375 C 107.246094 169.8125 108.71875 170.03125 110.253906 170.253906 C 113.320312 170.75 116.667969 171.105469 120.195312 171.570312 C 121.953125 171.820312 123.78125 171.949219 125.636719 172.152344 C 127.492188 172.332031 129.382812 172.570312 131.320312 172.714844 C 133.25 172.875 135.210938 173.039062 137.203125 173.203125 C 139.195312 173.335938 141.210938 173.472656 143.242188 173.605469 C 145.273438 173.761719 147.324219 173.871094 149.382812 173.957031 C 151.441406 174.042969 153.507812 174.175781 155.574219 174.226562 C 159.710938 174.382812 163.847656 174.535156 167.921875 174.578125 C 172 174.664062 176.011719 174.683594 179.894531 174.722656 C 187.667969 174.710938 194.925781 174.6875 201.152344 174.585938 C 207.378906 174.503906 212.570312 174.429688 216.207031 174.378906 C 219.84375 174.351562 221.925781 174.332031 221.925781 174.332031 C 221.925781 174.332031 219.859375 174.570312 216.246094 174.992188 C 214.433594 175.199219 212.238281 175.417969 209.710938 175.648438 C 208.128906 175.800781 206.402344 175.953125 204.578125 176.101562 C 243.617188 175.800781 270.835938 173.070312 290.78125 167.488281 C 284.753906 168.65625 281.09375 168.632812 281.09375 168.632812 C 314.035156 162.664062 324.203125 145.5625 327.273438 137.011719 C 318.90625 141.101562 309.878906 143.53125 300.84375 144.171875 C 306.390625 142.929688 311.726562 141.015625 316.722656 138.53125 C 314.570312 139.292969 312.21875 140.035156 309.621094 140.734375 C 286.800781 147.285156 247.988281 150.105469 187.488281 149.582031 C 127.027344 150.09375 88.199219 147.285156 65.355469 140.726562 C 52.769531 137.34375 45.660156 132.960938 41.980469 129.804688 C 44.726562 147.308594 56.96875 158.964844 80.148438 166.28125 " fill-opacity="1" fill-rule="nonzero"/><path fill="#ffffff" d="M 147.222656 114.242188 C 146.9375 115.464844 146.667969 116.6875 146.398438 117.910156 C 145.78125 120.441406 145.230469 122.832031 144.753906 125.035156 L 150.953125 117.777344 L 154.65625 130.90625 L 165.199219 119.792969 L 175.238281 132.40625 C 175.511719 132.417969 175.785156 132.429688 176.066406 132.441406 L 186.359375 120.511719 L 197.097656 132.765625 C 197.546875 132.757812 197.992188 132.746094 198.4375 132.738281 L 207.914062 119.863281 L 218.632812 130.335938 C 218.542969 126.199219 218.25 121.886719 217.785156 117.484375 C 210.394531 118.183594 202.558594 118.445312 195.007812 118.445312 C 178.433594 118.445312 163.25 117.195312 157.25 116.628906 C 153.023438 116.234375 149.433594 115.09375 147.222656 114.242188 " fill-opacity="1" fill-rule="nonzero"/><path fill="#ffffff" d="M 151.988281 95.703125 C 153.46875 96.347656 156.953125 97.679688 161.144531 98.074219 C 168.863281 98.796875 194.457031 100.867188 214.96875 98.566406 C 214.058594 93.703125 213.03125 88.890625 211.9375 84.234375 C 196.359375 84.730469 180.785156 83.554688 165.5625 80.777344 C 180.761719 82.523438 196.089844 82.660156 211.214844 81.21875 C 209.785156 75.367188 208.28125 69.820312 206.8125 64.824219 C 194.695312 65.097656 182.605469 64.074219 170.816406 61.800781 C 182.523438 63.035156 194.308594 63.027344 205.917969 61.820312 C 203.734375 54.640625 201.703125 48.824219 200.230469 45.191406 C 200.332031 45.246094 200.441406 45.296875 200.542969 45.355469 C 202.492188 46.484375 204.191406 47.964844 205.519531 49.785156 C 205.878906 50.230469 206.15625 50.707031 206.433594 51.179688 C 206.574219 51.421875 206.722656 51.648438 206.851562 51.898438 L 207.21875 52.675781 L 207.949219 54.234375 L 208.609375 55.839844 C 212.097656 64.4375 214.910156 73.347656 217.78125 82.203125 C 220.589844 91.09375 223.230469 100.035156 225.65625 109.035156 C 226.894531 113.527344 228.042969 118.046875 229.085938 122.585938 C 229.582031 124.859375 230.101562 127.132812 230.480469 129.429688 C 230.679688 130.578125 230.859375 131.730469 230.980469 132.886719 C 231.015625 133.308594 231.054688 133.738281 231.074219 134.164062 C 231.101562 134.167969 231.125 134.171875 231.152344 134.171875 C 231.140625 133.742188 231.121094 133.304688 231.097656 132.875 C 231.015625 131.710938 230.871094 130.550781 230.710938 129.394531 C 230.390625 127.082031 229.925781 124.796875 229.484375 122.5 C 228.550781 117.929688 227.515625 113.375 226.382812 108.84375 C 224.105469 99.792969 221.589844 90.804688 218.914062 81.859375 C 217.558594 77.390625 216.183594 72.925781 214.683594 68.503906 C 213.210938 64.070312 211.660156 59.660156 209.910156 55.308594 L 209.242188 53.671875 L 208.496094 52.058594 L 208.121094 51.25 C 207.984375 50.984375 207.816406 50.722656 207.664062 50.457031 C 207.351562 49.925781 207.039062 49.394531 206.667969 48.921875 C 205.257812 46.960938 203.371094 45.304688 201.285156 44.085938 C 200.648438 43.722656 199.996094 43.398438 199.335938 43.097656 C 199.332031 43.097656 199.332031 43.09375 199.332031 43.09375 C 194.65625 40.882812 189.625 40.613281 187.550781 40.613281 C 187.484375 40.613281 187.421875 40.613281 187.359375 40.613281 C 185.273438 40.613281 180.222656 40.886719 175.542969 43.105469 C 174.886719 43.40625 174.242188 43.722656 173.609375 44.085938 C 171.523438 45.304688 169.640625 46.960938 168.226562 48.921875 C 167.867188 49.394531 167.527344 49.917969 167.199219 50.449219 C 166.929688 50.984375 166.621094 51.515625 166.386719 52.054688 C 165.875 53.128906 165.421875 54.214844 164.972656 55.300781 C 163.230469 59.65625 161.6875 64.070312 160.203125 68.496094 C 158.714844 72.925781 157.320312 77.382812 155.984375 81.855469 C 154.605469 86.460938 153.269531 91.074219 151.988281 95.703125 " fill-opacity="1" fill-rule="nonzero"/><path fill="#000000" d="M 69.109375 144.480469 C 73.34375 145.628906 77.636719 146.550781 81.953125 147.375 C 90.597656 148.898438 99.3125 149.96875 108.046875 150.78125 C 116.78125 151.621094 125.542969 152.082031 134.300781 152.472656 C 143.058594 152.84375 151.824219 153.078125 160.589844 153.207031 C 178.117188 153.316406 195.644531 153.160156 213.160156 152.597656 C 221.917969 152.316406 230.667969 151.964844 239.421875 151.574219 C 248.167969 151.117188 256.917969 150.664062 265.65625 150.070312 L 239.386719 150.570312 C 230.632812 150.757812 221.878906 150.925781 213.125 151.023438 C 195.617188 151.25 178.113281 151.429688 160.613281 151.160156 C 143.113281 151.03125 125.621094 150.464844 108.175781 149.214844 C 99.457031 148.59375 90.757812 147.699219 82.117188 146.386719 C 73.5 145.039062 64.851562 143.375 56.757812 139.996094 C 60.699219 141.910156 64.878906 143.320312 69.109375 144.480469 " fill-opacity="1" fill-rule="nonzero"/><path fill="#000000" d="M 209.488281 155.207031 C 203.019531 155.3125 195.464844 155.335938 187.375 155.300781 C 179.289062 155.3125 170.660156 155.25 162.035156 155.0625 C 153.410156 154.941406 144.785156 154.769531 136.707031 154.414062 C 132.664062 154.3125 128.761719 154.09375 125.058594 153.953125 C 121.359375 153.730469 117.855469 153.578125 114.632812 153.335938 C 108.167969 152.960938 102.792969 152.519531 99.03125 152.164062 C 95.269531 151.820312 93.117188 151.625 93.117188 151.625 C 93.117188 151.625 95.25 151.960938 98.984375 152.558594 C 102.730469 153.09375 108.085938 153.796875 114.535156 154.480469 C 117.761719 154.816406 121.261719 155.070312 124.964844 155.398438 C 128.667969 155.640625 132.578125 155.972656 136.625 156.1875 C 144.71875 156.632812 153.359375 156.898438 162 157.113281 C 170.644531 157.210938 179.289062 157.179688 187.390625 157.082031 C 195.492188 156.886719 203.050781 156.648438 209.523438 156.359375 C 216 156.03125 221.386719 155.675781 225.160156 155.421875 C 228.925781 155.117188 231.078125 154.949219 231.078125 154.949219 C 231.078125 154.949219 228.917969 154.976562 225.140625 155.023438 C 221.363281 155.09375 215.964844 155.1875 209.488281 155.207031 " fill-opacity="1" fill-rule="nonzero"/><g fill="#ffffff" fill-opacity="1"><g transform="translate(108.248355, 239.96923)"><g><path d="M 14.679688 -40.96875 L 22.246094 -40.96875 L 22.246094 0 L 14.679688 0 L 14.679688 -3.445312 C 14.53125 -3.371094 14.230469 -3.070312 13.855469 -2.695312 C 12.957031 -1.796875 11.910156 -0.75 10.5625 0 C 9.886719 0.375 9.210938 0.597656 8.539062 0.597656 C 6.515625 0.597656 5.09375 -0.597656 4.195312 -2.171875 C 3.296875 -3.671875 2.847656 -5.691406 2.847656 -7.414062 L 2.847656 -40.96875 L 10.410156 -40.96875 L 10.410156 -8.539062 C 10.410156 -6.964844 11.308594 -6.742188 12.207031 -6.742188 C 13.03125 -6.742188 13.480469 -7.191406 14.007812 -7.714844 C 14.230469 -7.9375 14.457031 -8.3125 14.679688 -8.6875 Z M 14.679688 -40.96875 "/></g></g></g><g fill="#ffffff" fill-opacity="1"><g transform="translate(133.48388, 239.96923)"><g><path d="M 10.5625 0 L 2.996094 0 L 2.996094 -40.96875 L 10.5625 -40.96875 L 10.5625 -37.523438 C 10.710938 -37.597656 11.011719 -37.898438 11.460938 -38.347656 C 12.285156 -39.171875 13.40625 -40.296875 14.753906 -41.042969 C 15.429688 -41.417969 16.027344 -41.566406 16.703125 -41.566406 C 18.722656 -41.566406 20.148438 -40.371094 21.046875 -38.871094 C 21.945312 -37.300781 22.394531 -35.277344 22.394531 -33.554688 L 22.394531 0 L 14.828125 0 L 14.828125 -32.429688 C 14.828125 -34.003906 13.929688 -34.226562 13.03125 -34.226562 C 12.207031 -34.226562 11.757812 -33.777344 11.234375 -33.253906 C 11.011719 -32.953125 10.785156 -32.65625 10.5625 -32.28125 Z M 10.5625 0 "/></g></g></g><g fill="#ffffff" fill-opacity="1"><g transform="translate(158.719404, 239.96923)"><g/></g></g><g fill="#ffffff" fill-opacity="1"><g transform="translate(170.25137, 239.96923)"><g><path d="M 2.996094 -40.96875 L 10.5625 -40.96875 L 10.5625 -38.273438 C 11.832031 -39.472656 12.957031 -40.371094 14.457031 -41.042969 C 15.128906 -41.417969 15.878906 -41.566406 16.550781 -41.566406 C 18.648438 -41.566406 20.074219 -40.371094 21.046875 -38.871094 C 21.945312 -37.300781 22.394531 -35.277344 22.394531 -33.554688 L 22.394531 -7.414062 C 22.394531 -5.691406 21.945312 -3.671875 21.046875 -2.171875 C 20.074219 -0.597656 18.648438 0.597656 16.550781 0.597656 C 15.128906 0.597656 13.632812 -0.226562 12.507812 -1.046875 C 11.832031 -1.574219 11.234375 -2.097656 10.5625 -2.695312 L 10.5625 14.082031 L 2.996094 14.082031 Z M 10.5625 -8.988281 C 10.5625 -7.789062 11.683594 -6.515625 12.808594 -6.515625 C 13.929688 -6.515625 14.828125 -7.566406 14.828125 -8.988281 L 14.828125 -31.980469 C 14.828125 -33.40625 13.929688 -34.453125 12.808594 -34.453125 C 11.683594 -34.453125 10.5625 -33.40625 10.5625 -31.980469 Z M 10.5625 -8.988281 "/></g></g></g><g fill="#ffffff" fill-opacity="1"><g transform="translate(195.337138, 239.96923)"><g><path d="M 21.71875 -9.960938 C 21.496094 -5.992188 20.296875 -3.21875 17.675781 -1.046875 C 16.328125 0.0742188 14.457031 0.597656 11.984375 0.597656 C 7.117188 0.597656 4.71875 -2.097656 3.519531 -4.792969 C 2.847656 -6.367188 2.398438 -8.164062 2.320312 -10.1875 L 2.320312 -30.78125 C 2.546875 -34.753906 3.746094 -37.671875 6.367188 -39.921875 C 7.640625 -41.042969 9.511719 -41.566406 11.984375 -41.566406 C 16.851562 -41.566406 19.324219 -38.871094 20.523438 -36.25 C 21.195312 -34.675781 21.644531 -32.953125 21.71875 -31.007812 Z M 14.605469 -30.78125 C 14.679688 -32.355469 14.378906 -33.480469 13.632812 -34.378906 C 13.257812 -34.753906 12.65625 -34.976562 11.984375 -34.976562 C 10.5625 -34.976562 9.960938 -34.003906 9.660156 -32.878906 C 9.4375 -32.28125 9.363281 -31.605469 9.4375 -30.78125 L 9.4375 -10.1875 C 9.363281 -8.613281 9.738281 -7.488281 10.410156 -6.664062 C 10.785156 -6.292969 11.308594 -6.066406 11.984375 -6.066406 C 13.40625 -6.066406 14.082031 -6.964844 14.378906 -8.089844 C 14.605469 -8.6875 14.679688 -9.363281 14.605469 -10.1875 Z M 14.605469 -30.78125 "/></g></g></g><g fill="#ffffff" fill-opacity="1"><g transform="translate(219.374537, 239.96923)"><g><path d="M 9.960938 -9.4375 C 9.960938 -7.9375 10.035156 -6.140625 12.058594 -6.140625 C 13.78125 -6.140625 14.230469 -6.964844 14.230469 -9.4375 L 14.230469 -15.128906 L 21.796875 -15.128906 L 21.796875 -11.160156 C 21.796875 -6.589844 20.972656 -3.671875 19.324219 -1.871094 C 17.675781 -0.0742188 15.277344 0.597656 12.058594 0.597656 C 9.363281 0.597656 6.890625 -0.148438 5.167969 -2.023438 C 3.445312 -3.894531 2.398438 -6.964844 2.398438 -11.535156 L 2.398438 -29.433594 C 2.398438 -34.003906 3.445312 -37.074219 5.167969 -38.945312 C 6.890625 -40.820312 9.363281 -41.566406 12.058594 -41.566406 C 15.277344 -41.566406 17.675781 -40.894531 19.324219 -39.097656 C 20.972656 -37.300781 21.796875 -34.378906 21.796875 -29.808594 L 21.796875 -26.589844 L 14.230469 -26.589844 L 14.230469 -31.53125 C 14.230469 -34.003906 13.78125 -34.828125 12.058594 -34.828125 C 10.035156 -34.828125 9.960938 -33.03125 9.960938 -31.53125 Z M 9.960938 -9.4375 "/></g></g></g><g fill="#ffffff" fill-opacity="1"><g transform="translate(242.962642, 239.96923)"><g><path d="M 21.71875 -9.960938 C 21.496094 -5.992188 20.296875 -3.21875 17.675781 -1.046875 C 16.328125 0.0742188 14.457031 0.597656 11.984375 0.597656 C 7.117188 0.597656 4.71875 -2.097656 3.519531 -4.792969 C 2.847656 -6.367188 2.398438 -8.164062 2.320312 -10.1875 L 2.320312 -30.78125 C 2.546875 -34.753906 3.746094 -37.671875 6.367188 -39.921875 C 7.640625 -41.042969 9.511719 -41.566406 11.984375 -41.566406 C 16.851562 -41.566406 19.324219 -38.871094 20.523438 -36.25 C 21.195312 -34.675781 21.644531 -32.953125 21.71875 -31.007812 Z M 14.605469 -30.78125 C 14.679688 -32.355469 14.378906 -33.480469 13.632812 -34.378906 C 13.257812 -34.753906 12.65625 -34.976562 11.984375 -34.976562 C 10.5625 -34.976562 9.960938 -34.003906 9.660156 -32.878906 C 9.4375 -32.28125 9.363281 -31.605469 9.4375 -30.78125 L 9.4375 -10.1875 C 9.363281 -8.613281 9.738281 -7.488281 10.410156 -6.664062 C 10.785156 -6.292969 11.308594 -6.066406 11.984375 -6.066406 C 13.40625 -6.066406 14.082031 -6.964844 14.378906 -8.089844 C 14.605469 -8.6875 14.679688 -9.363281 14.605469 -10.1875 Z M 14.605469 -30.78125 "/></g></g></g><g fill="#ffffff" fill-opacity="1"><g transform="translate(108.155217, 340.694445)"><g><path d="M 4.664062 -85.71875 L 17.261719 -85.71875 L 17.261719 -11.664062 L 33.9375 -11.664062 L 33.9375 0 L 4.664062 0 Z M 4.664062 -85.71875 "/></g></g></g><g fill="#ffffff" fill-opacity="1"><g transform="translate(142.554697, 340.694445)"><g><path d="M 37.4375 -17.609375 C 37.320312 -14.113281 36.621094 -10.960938 35.335938 -8.28125 C 34.289062 -5.949219 32.65625 -3.730469 30.320312 -1.984375 C 27.988281 -0.117188 24.839844 0.933594 20.640625 0.933594 C 16.445312 0.933594 13.179688 -0.117188 10.847656 -1.984375 C 8.511719 -3.730469 6.996094 -5.949219 5.949219 -8.28125 C 4.664062 -10.960938 3.964844 -14.113281 3.847656 -17.609375 L 3.847656 -68.109375 C 3.964844 -71.488281 4.664062 -74.640625 5.949219 -77.320312 C 6.996094 -79.652344 8.511719 -81.984375 10.847656 -83.734375 C 13.179688 -85.484375 16.445312 -86.652344 20.640625 -86.652344 C 24.839844 -86.652344 27.988281 -85.484375 30.320312 -83.734375 C 32.65625 -81.984375 34.289062 -79.652344 35.335938 -77.320312 C 36.621094 -74.640625 37.320312 -71.488281 37.4375 -68.109375 Z M 24.839844 -68.109375 C 24.839844 -70.441406 24.375 -72.074219 23.207031 -73.472656 C 22.625 -74.054688 21.691406 -74.40625 20.640625 -74.40625 C 18.425781 -74.40625 17.375 -72.773438 16.910156 -71.257812 C 16.558594 -70.324219 16.445312 -69.273438 16.445312 -68.109375 L 16.445312 -17.609375 C 16.445312 -15.160156 17.027344 -13.527344 18.191406 -12.246094 C 18.777344 -11.664062 19.59375 -11.3125 20.640625 -11.3125 C 22.859375 -11.3125 23.90625 -12.710938 24.375 -14.460938 C 24.722656 -15.277344 24.839844 -16.328125 24.839844 -17.609375 Z M 24.839844 -68.109375 "/></g></g></g><g fill="#ffffff" fill-opacity="1"><g transform="translate(183.834074, 340.694445)"><g><path d="M 24.839844 -54.929688 L 24.839844 -68.109375 C 24.839844 -70.441406 24.375 -72.074219 23.207031 -73.472656 C 22.625 -74.054688 21.691406 -74.40625 20.640625 -74.40625 C 18.425781 -74.40625 17.375 -72.773438 16.910156 -71.257812 C 16.558594 -70.324219 16.445312 -69.273438 16.445312 -68.109375 L 16.445312 -16.558594 C 16.445312 -14.113281 17.027344 -12.480469 18.191406 -11.195312 C 18.777344 -10.613281 19.59375 -10.261719 20.640625 -10.261719 C 22.859375 -10.261719 23.90625 -11.664062 24.375 -13.410156 C 24.722656 -14.226562 24.839844 -15.277344 24.839844 -16.558594 L 24.839844 -32.070312 L 19.824219 -32.070312 L 19.824219 -42.683594 L 37.4375 -42.683594 L 37.4375 0 L 29.972656 0 L 28.457031 -4.082031 C 26.125 -1.167969 22.742188 0.933594 18.660156 0.933594 C 14.578125 0.933594 11.777344 -0.117188 9.679688 -1.984375 C 7.582031 -3.730469 6.179688 -5.949219 5.25 -8.28125 C 4.199219 -10.960938 3.730469 -14.113281 3.847656 -17.609375 L 3.847656 -68.109375 C 3.964844 -71.488281 4.664062 -74.640625 5.949219 -77.320312 C 6.996094 -79.652344 8.511719 -81.984375 10.847656 -83.734375 C 13.179688 -85.484375 16.445312 -86.652344 20.640625 -86.652344 C 24.839844 -86.652344 27.988281 -85.484375 30.320312 -83.734375 C 32.65625 -81.984375 34.289062 -79.652344 35.335938 -77.320312 C 36.621094 -74.640625 37.320312 -71.488281 37.4375 -68.109375 L 37.4375 -54.929688 Z M 24.839844 -54.929688 "/></g></g></g><g fill="#ffffff" fill-opacity="1"><g transform="translate(225.81312, 340.694445)"><g><path d="M 37.4375 -17.609375 C 37.320312 -14.113281 36.621094 -10.960938 35.335938 -8.28125 C 34.289062 -5.949219 32.65625 -3.730469 30.320312 -1.984375 C 27.988281 -0.117188 24.839844 0.933594 20.640625 0.933594 C 16.445312 0.933594 13.179688 -0.117188 10.847656 -1.984375 C 8.511719 -3.730469 6.996094 -5.949219 5.949219 -8.28125 C 4.664062 -10.960938 3.964844 -14.113281 3.847656 -17.609375 L 3.847656 -68.109375 C 3.964844 -71.488281 4.664062 -74.640625 5.949219 -77.320312 C 6.996094 -79.652344 8.511719 -81.984375 10.847656 -83.734375 C 13.179688 -85.484375 16.445312 -86.652344 20.640625 -86.652344 C 24.839844 -86.652344 27.988281 -85.484375 30.320312 -83.734375 C 32.65625 -81.984375 34.289062 -79.652344 35.335938 -77.320312 C 36.621094 -74.640625 37.320312 -71.488281 37.4375 -68.109375 Z M 24.839844 -68.109375 C 24.839844 -70.441406 24.375 -72.074219 23.207031 -73.472656 C 22.625 -74.054688 21.691406 -74.40625 20.640625 -74.40625 C 18.425781 -74.40625 17.375 -72.773438 16.910156 -71.257812 C 16.558594 -70.324219 16.445312 -69.273438 16.445312 -68.109375 L 16.445312 -17.609375 C 16.445312 -15.160156 17.027344 -13.527344 18.191406 -12.246094 C 18.777344 -11.664062 19.59375 -11.3125 20.640625 -11.3125 C 22.859375 -11.3125 23.90625 -12.710938 24.375 -14.460938 C 24.722656 -15.277344 24.839844 -16.328125 24.839844 -17.609375 Z M 24.839844 -68.109375 "/></g></g></g></svg>